<svg width="455" height="119" xmlns="http://www.w3.org/2000/svg" xmlns:xlink="http://www.w3.org/1999/xlink"><svg width="455" height="35" fill="none" xmlns="http://www.w3.org/2000/svg"><path d="M1.552 12V.576h8.576V12H8.704V1.84H2.992V12h-1.44zm15.591-8.736c1.056 0 1.904.368 2.544 1.104.65.736.976 1.845.976 3.328 0 .97-.15 1.792-.448 2.464-.288.661-.698 1.163-1.232 1.504-.523.33-1.141.496-1.856.496-.437 0-.826-.059-1.168-.176a3.246 3.246 0 01-.88-.448 3.727 3.727 0 01-.608-.624h-.096c.021.181.043.41.064.688.021.277.032.517.032.72v3.52h-1.408V3.424h1.152l.192 1.168h.064c.17-.245.373-.47.608-.672.245-.203.534-.363.864-.48a3.695 3.695 0 011.2-.176zm-.256 1.184c-.576 0-1.04.112-1.392.336-.352.213-.608.539-.768.976-.16.437-.245.992-.256 1.664v.272c0 .704.075 1.301.224 1.792.15.49.4.864.752 1.12.363.256.854.384 1.472.384.523 0 .95-.144 1.28-.432.341-.288.592-.677.752-1.168.17-.501.256-1.072.256-1.712 0-.981-.192-1.765-.576-2.352-.373-.587-.954-.88-1.744-.88zm7.348 4.208c0 .096-.005.235-.016.416 0 .17-.006.357-.016.56l-.032.56c-.01.17-.021.31-.032.416l4.592-7.184h1.728V12h-1.312V6.272l.032-.816c.01-.277.021-.485.032-.624L24.65 12h-1.744V3.424h1.328v5.232zm21.139-5.232V12h-1.408V4.624h-4.432V12h-1.408V3.424h7.248zm10.192 4.272c0 .715-.096 1.35-.288 1.904a3.813 3.813 0 01-.8 1.392 3.336 3.336 0 01-1.264.88 4.49 4.49 0 01-1.648.288 4.184 4.184 0 01-1.568-.288 3.544 3.544 0 01-1.248-.88 4.206 4.206 0 01-.832-1.392c-.192-.555-.288-1.19-.288-1.904 0-.95.16-1.75.48-2.4.32-.661.779-1.163 1.376-1.504.597-.352 1.307-.528 2.128-.528.779 0 1.461.176 2.048.528.597.341 1.061.843 1.392 1.504.341.65.512 1.45.512 2.4zm-6.48 0c0 .672.085 1.259.256 1.76.181.49.459.87.832 1.136.373.267.848.4 1.424.4s1.05-.133 1.424-.4c.373-.267.645-.645.816-1.136.181-.501.272-1.088.272-1.76 0-.683-.09-1.264-.272-1.744-.181-.48-.459-.848-.832-1.104-.363-.267-.837-.4-1.424-.4-.875 0-1.51.288-1.904.864-.395.576-.592 1.37-.592 2.384zM62.87 3.424h1.536L60.74 7.552 64.71 12h-1.632l-3.873-4.352V12h-1.407V3.424h1.407v4.16l3.665-4.16zm2.052 0h1.504l1.856 4.88c.107.288.203.565.288.832.096.267.182.528.256.784.075.245.134.485.176.72h.064c.064-.267.166-.613.304-1.04a62 62 0 01.432-1.312l1.744-4.864h1.52l-3.696 9.76a6.314 6.314 0 01-.72 1.392 2.744 2.744 0 01-.992.928c-.384.224-.853.336-1.408.336-.256 0-.48-.016-.672-.048a4.39 4.39 0 01-.496-.08v-1.12c.118.021.256.043.416.064.17.021.347.032.528.032.33 0 .614-.064.848-.192.246-.117.454-.293.624-.528.17-.224.315-.49.432-.8l.448-1.136-3.456-8.608zm16.749 0V12h-1.409V4.624h-4.431V12h-1.409V3.424h7.249zm7.808 0h1.536L87.35 7.552 91.319 12h-1.632l-3.872-4.352V12h-1.408V3.424h1.408v4.16l3.664-4.16zm6.396-.16c.736 0 1.365.16 1.888.48.533.32.939.773 1.216 1.36.288.576.432 1.253.432 2.032v.848H93.54c.022.97.267 1.712.736 2.224.48.501 1.147.752 2 .752.544 0 1.024-.048 1.44-.144a8.685 8.685 0 001.312-.448V11.6c-.437.192-.87.33-1.296.416a7.004 7.004 0 01-1.52.144c-.81 0-1.53-.165-2.16-.496a3.524 3.524 0 01-1.456-1.472c-.341-.661-.512-1.467-.512-2.416 0-.939.155-1.744.464-2.416.32-.672.763-1.19 1.328-1.552.576-.363 1.243-.544 2-.544zm-.016 1.152c-.672 0-1.205.219-1.6.656-.384.427-.613 1.024-.688 1.792h4.368c0-.49-.074-.917-.224-1.28a1.807 1.807 0 00-.688-.848c-.299-.213-.688-.32-1.168-.32zm14.129-3.84c.949 0 1.744.09 2.384.272.651.181 1.136.48 1.456.896.331.416.496.97.496 1.664 0 .448-.085.848-.256 1.2a2.19 2.19 0 01-.736.864c-.32.224-.715.379-1.184.464v.08c.48.075.912.213 1.296.416.395.203.704.49.928.864.224.373.336.859.336 1.456 0 .693-.16 1.285-.48 1.776-.32.48-.779.848-1.376 1.104-.587.245-1.291.368-2.112.368h-4.016V.576h3.264zm.288 4.864c.981 0 1.653-.155 2.016-.464.363-.32.544-.79.544-1.408 0-.63-.224-1.077-.672-1.344-.437-.277-1.141-.416-2.112-.416h-1.888V5.44h2.112zm-2.112 1.2v4.144h2.304c1.013 0 1.717-.197 2.112-.592.395-.395.592-.912.592-1.552a2 2 0 00-.272-1.056c-.171-.299-.464-.528-.88-.688-.405-.17-.96-.256-1.664-.256h-2.192zm12.086-3.376c.736 0 1.365.16 1.888.48.533.32.939.773 1.216 1.36.288.576.432 1.253.432 2.032v.848h-5.872c.021.97.267 1.712.736 2.224.48.501 1.147.752 2 .752.544 0 1.024-.048 1.44-.144a8.673 8.673 0 001.312-.448V11.6c-.437.192-.869.33-1.296.416a7.004 7.004 0 01-1.52.144c-.811 0-1.531-.165-2.16-.496a3.521 3.521 0 01-1.456-1.472c-.341-.661-.512-1.467-.512-2.416 0-.939.155-1.744.464-2.416.32-.672.763-1.19 1.328-1.552.576-.363 1.243-.544 2-.544zm-.016 1.152c-.672 0-1.205.219-1.6.656-.384.427-.613 1.024-.688 1.792h4.368c0-.49-.075-.917-.224-1.28a1.808 1.808 0 00-.688-.848c-.299-.213-.688-.32-1.168-.32zm9.815-1.152c1.056 0 1.904.368 2.544 1.104.651.736.976 1.845.976 3.328 0 .97-.149 1.792-.448 2.464-.288.661-.698 1.163-1.232 1.504-.522.33-1.141.496-1.856.496a3.59 3.59 0 01-1.168-.176 3.259 3.259 0 01-.88-.448 3.762 3.762 0 01-.608-.624h-.096c.022.181.043.41.064.688.022.277.032.517.032.72v3.52h-1.408V3.424h1.152l.192 1.168h.064c.171-.245.374-.47.608-.672.246-.203.534-.363.864-.48a3.7 3.7 0 011.2-.176zm-.256 1.184c-.576 0-1.04.112-1.392.336-.352.213-.608.539-.768.976-.16.437-.245.992-.256 1.664v.272c0 .704.075 1.301.224 1.792.15.49.4.864.752 1.12.363.256.854.384 1.472.384.523 0 .95-.144 1.28-.432.342-.288.592-.677.752-1.168.171-.501.256-1.072.256-1.712 0-.981-.192-1.765-.576-2.352-.373-.587-.954-.88-1.744-.88zm15.22-1.024V12h-1.264V6.528c0-.224.005-.459.016-.704l.064-.72h-.048l-2.8 6.896h-1.184l-2.72-6.896h-.048c.021.235.032.475.032.72.011.245.016.496.016.752V12h-1.264V3.424h1.872l2.704 6.896 2.752-6.896h1.872zm4.066 5.232c0 .096-.006.235-.016.416 0 .17-.006.357-.016.56l-.032.56c-.011.17-.022.31-.032.416l4.592-7.184h1.728V12h-1.312V6.272l.032-.816c.01-.277.021-.485.032-.624L149.495 12h-1.744V3.424h1.328v5.232zm20.585-5.232V12h-11.632V3.424h1.408v7.392h3.696V3.424h1.408v7.392h3.712V3.424h1.408zm6.055-.16c.736 0 1.365.16 1.888.48.533.32.939.773 1.216 1.36.288.576.432 1.253.432 2.032v.848h-5.872c.021.97.267 1.712.736 2.224.48.501 1.147.752 2 .752.544 0 1.024-.048 1.44-.144a8.673 8.673 0 001.312-.448V11.6c-.437.192-.869.33-1.296.416a7.004 7.004 0 01-1.52.144c-.811 0-1.531-.165-2.16-.496a3.521 3.521 0 01-1.456-1.472c-.341-.661-.512-1.467-.512-2.416 0-.939.155-1.744.464-2.416.32-.672.763-1.19 1.328-1.552.576-.363 1.243-.544 2-.544zm-.016 1.152c-.672 0-1.205.219-1.6.656-.384.427-.613 1.024-.688 1.792h4.368c0-.49-.075-.917-.224-1.28a1.808 1.808 0 00-.688-.848c-.299-.213-.688-.32-1.168-.32zM187.966 12h-1.424V4.592h-2.528a41.356 41.356 0 01-.4 3.472c-.16.95-.363 1.723-.608 2.32-.245.597-.539 1.035-.88 1.312a1.845 1.845 0 01-1.2.416 2.65 2.65 0 01-.416-.032.877.877 0 01-.32-.08v-1.056c.064.021.133.037.208.048.075.01.149.016.224.016.235 0 .448-.096.64-.288.192-.192.363-.485.512-.88.16-.395.304-.89.432-1.488.128-.608.24-1.323.336-2.144.096-.821.181-1.75.256-2.784h5.168V12zm4.05-3.344c0 .096-.005.235-.016.416 0 .17-.005.357-.016.56l-.032.56c-.011.17-.021.31-.032.416l4.592-7.184h1.728V12h-1.312V6.272l.032-.816c.011-.277.021-.485.032-.624L192.432 12h-1.744V3.424h1.328v5.232zm20.259-5.232v7.392h1.248v4.16h-1.36V12h-5.968v2.976h-1.344v-4.16h.688c.491-.683.896-1.424 1.216-2.224.331-.81.576-1.653.736-2.528.171-.885.261-1.765.272-2.64h4.512zm-3.264 1.104a13.497 13.497 0 01-.336 2.256 14.77 14.77 0 01-.704 2.208 8.157 8.157 0 01-.976 1.824h3.92V4.528h-1.904zM221.732 12h-1.424V4.592h-2.528a41.356 41.356 0 01-.4 3.472c-.16.95-.363 1.723-.608 2.32-.246.597-.539 1.035-.88 1.312a1.848 1.848 0 01-1.2.416 2.64 2.64 0 01-.416-.032.877.877 0 01-.32-.08v-1.056c.064.021.133.037.208.048.074.01.149.016.224.016.234 0 .448-.096.64-.288.192-.192.362-.485.512-.88.16-.395.304-.89.432-1.488.128-.608.24-1.323.336-2.144.096-.821.181-1.75.256-2.784h5.168V12zm3.25 0h-1.632l2.448-3.6a3.732 3.732 0 01-.96-.4 2.205 2.205 0 01-.752-.784c-.192-.341-.288-.763-.288-1.264 0-.821.277-1.445.832-1.872.554-.437 1.29-.656 2.208-.656h3.84V12h-1.408V8.592h-2.08L224.982 12zm.176-6.032c0 .49.181.859.544 1.104.373.235.89.352 1.552.352h2.016V4.592h-2.288c-.651 0-1.12.128-1.408.384-.278.256-.416.587-.416.992zm16.611 6.192c-.758 0-1.435-.155-2.032-.464-.587-.31-1.051-.79-1.392-1.44-.331-.65-.496-1.483-.496-2.496 0-1.056.176-1.915.528-2.576.352-.661.826-1.147 1.424-1.456.608-.31 1.296-.464 2.064-.464.437 0 .858.048 1.264.144.405.085.736.192.992.32l-.432 1.168a8.348 8.348 0 00-.896-.272 3.977 3.977 0 00-.96-.128c-.576 0-1.051.123-1.424.368-.374.245-.651.608-.832 1.088-.182.48-.272 1.077-.272 1.792 0 .683.09 1.264.272 1.744.181.48.453.843.816 1.088.362.245.816.368 1.36.368.469 0 .88-.048 1.232-.144a6.03 6.03 0 00.992-.352v1.248c-.288.15-.608.261-.96.336a5.232 5.232 0 01-1.248.128zm2.903-8.736h1.504l1.856 4.88c.107.288.203.565.288.832.096.267.182.528.256.784.075.245.134.485.176.72h.064c.064-.267.166-.613.304-1.04.139-.437.283-.875.432-1.312l1.744-4.864h1.52l-3.696 9.76a6.254 6.254 0 01-.72 1.392 2.735 2.735 0 01-.992.928c-.384.224-.853.336-1.408.336-.256 0-.48-.016-.672-.048a4.406 4.406 0 01-.496-.08v-1.12c.118.021.256.043.416.064.171.021.347.032.528.032.331 0 .614-.064.848-.192.246-.117.454-.293.624-.528a3.14 3.14 0 00.432-.8l.448-1.136-3.456-8.608zm16.749 0V12h-1.408V4.624h-4.432V12h-1.408V3.424h7.248zm3.968 3.12c0 .501.139.875.416 1.12.288.235.699.352 1.232.352s1.019-.08 1.456-.24c.437-.17.885-.395 1.344-.672v-3.68h1.408V12h-1.408V8.176a7.83 7.83 0 01-1.424.736c-.459.17-1.013.256-1.664.256-.875 0-1.557-.23-2.048-.688-.48-.459-.72-1.072-.72-1.84V3.424h1.408v3.12zm9.908 2.112c0 .096-.005.235-.016.416 0 .17-.005.357-.016.56l-.032.56c-.01.17-.021.31-.032.416l4.592-7.184h1.728V12h-1.312V6.272l.032-.816c.011-.277.022-.485.032-.624L275.713 12h-1.744V3.424h1.328v5.232zm14.026-5.232h1.536l-3.664 4.128L291.163 12h-1.632l-3.872-4.352V12h-1.408V3.424h1.408v4.16l3.664-4.16zm6.644-.144c1.046 0 1.819.23 2.32.688.502.459.752 1.19.752 2.192V12h-1.024l-.272-1.216h-.064c-.245.31-.501.57-.768.784a2.522 2.522 0 01-.896.448c-.33.096-.736.144-1.216.144-.512 0-.976-.09-1.392-.272a2.146 2.146 0 01-.96-.832c-.234-.384-.352-.864-.352-1.44 0-.853.336-1.51 1.008-1.968.672-.47 1.707-.725 3.104-.768l1.456-.048V6.32c0-.715-.154-1.21-.464-1.488-.309-.277-.746-.416-1.312-.416-.448 0-.874.07-1.28.208a8.413 8.413 0 00-1.136.448l-.432-1.056a6.176 6.176 0 011.328-.512 5.689 5.689 0 011.6-.224zm.416 4.576c-1.066.043-1.808.213-2.224.512-.405.299-.608.72-.608 1.264 0 .48.144.832.432 1.056.299.224.678.336 1.136.336.726 0 1.328-.197 1.808-.592.48-.405.72-1.024.72-1.856v-.768l-1.264.048zm11.651-4.432v3.568h4.656V3.424h1.408V12h-1.408V8.176h-4.656V12h-1.408V3.424h1.408zm12.027-.144c1.045 0 1.819.23 2.32.688.501.459.752 1.19.752 2.192V12h-1.024l-.272-1.216h-.064c-.245.31-.501.57-.768.784a2.53 2.53 0 01-.896.448c-.331.096-.736.144-1.216.144-.512 0-.976-.09-1.392-.272a2.146 2.146 0 01-.96-.832c-.235-.384-.352-.864-.352-1.44 0-.853.336-1.51 1.008-1.968.672-.47 1.707-.725 3.104-.768l1.456-.048V6.32c0-.715-.155-1.21-.464-1.488-.309-.277-.747-.416-1.312-.416-.448 0-.875.07-1.28.208a8.413 8.413 0 00-1.136.448l-.432-1.056a6.156 6.156 0 011.328-.512 5.684 5.684 0 011.6-.224zm.416 4.576c-1.067.043-1.808.213-2.224.512-.405.299-.608.72-.608 1.264 0 .48.144.832.432 1.056.299.224.677.336 1.136.336.725 0 1.328-.197 1.808-.592.48-.405.72-1.024.72-1.856v-.768l-1.264.048zm6.537-1.312c0 .501.139.875.416 1.12.288.235.699.352 1.232.352s1.019-.08 1.456-.24c.437-.17.885-.395 1.344-.672v-3.68h1.408V12h-1.408V8.176a7.83 7.83 0 01-1.424.736c-.459.17-1.013.256-1.664.256-.875 0-1.557-.23-2.048-.688-.48-.459-.72-1.072-.72-1.84V3.424h1.408v3.12zm9.908 2.112c0 .096-.005.235-.016.416 0 .17-.005.357-.016.56l-.032.56c-.01.17-.021.31-.032.416l4.592-7.184h1.728V12h-1.312V6.272l.032-.816c.011-.277.022-.485.032-.624L337.338 12h-1.744V3.424h1.328v5.232zm12.394 3.504c-.758 0-1.435-.155-2.032-.464-.587-.31-1.051-.79-1.392-1.44-.331-.65-.496-1.483-.496-2.496 0-1.056.176-1.915.528-2.576.352-.661.826-1.147 1.424-1.456.608-.31 1.296-.464 2.064-.464.437 0 .858.048 1.264.144.405.085.736.192.992.32l-.432 1.168a8.348 8.348 0 00-.896-.272 3.977 3.977 0 00-.96-.128c-.576 0-1.051.123-1.424.368-.374.245-.651.608-.832 1.088-.182.48-.272 1.077-.272 1.792 0 .683.09 1.264.272 1.744.181.48.453.843.816 1.088.362.245.816.368 1.36.368.469 0 .88-.048 1.232-.144a6.03 6.03 0 00.992-.352v1.248c-.288.15-.608.261-.96.336a5.232 5.232 0 01-1.248.128zm10.775-.16h-1.424V4.592h-2.528a41.356 41.356 0 01-.4 3.472c-.16.95-.363 1.723-.608 2.32-.245.597-.539 1.035-.88 1.312a1.845 1.845 0 01-1.2.416 2.65 2.65 0 01-.416-.032.877.877 0 01-.32-.08v-1.056c.064.021.133.037.208.048.075.01.149.016.224.016.235 0 .448-.096.64-.288.192-.192.363-.485.512-.88.16-.395.304-.89.432-1.488.128-.608.24-1.323.336-2.144.096-.821.181-1.75.256-2.784h5.168V12zm3.25 0h-1.632l2.448-3.6a3.732 3.732 0 01-.96-.4 2.214 2.214 0 01-.752-.784c-.192-.341-.288-.763-.288-1.264 0-.821.277-1.445.832-1.872.555-.437 1.291-.656 2.208-.656h3.84V12h-1.408V8.592h-2.08L363.341 12zm.176-6.032c0 .49.181.859.544 1.104.373.235.891.352 1.552.352h2.016V4.592h-2.288c-.651 0-1.12.128-1.408.384-.277.256-.416.587-.416.992zm11.546-2.704c.736 0 1.365.16 1.888.48.533.32.938.773 1.216 1.36.288.576.432 1.253.432 2.032v.848h-5.872c.021.97.266 1.712.736 2.224.48.501 1.146.752 2 .752.544 0 1.024-.048 1.44-.144a8.711 8.711 0 001.312-.448V11.6c-.438.192-.87.33-1.296.416a7.01 7.01 0 01-1.52.144c-.811 0-1.531-.165-2.16-.496a3.521 3.521 0 01-1.456-1.472c-.342-.661-.512-1.467-.512-2.416 0-.939.154-1.744.464-2.416.32-.672.762-1.19 1.328-1.552.576-.363 1.242-.544 2-.544zm-.016 1.152c-.672 0-1.206.219-1.6.656-.384.427-.614 1.024-.688 1.792h4.368c0-.49-.075-.917-.224-1.28a1.814 1.814 0 00-.688-.848c-.299-.213-.688-.32-1.168-.32zm14.935-.992V12h-1.264V6.528c0-.224.005-.459.016-.704l.064-.72h-.048L385.95 12h-1.184l-2.72-6.896h-.048c.021.235.032.475.032.72.011.245.016.496.016.752V12h-1.264V3.424h1.872l2.704 6.896 2.752-6.896h1.872zm-382.254 19v7.392h1.248v4.16h-1.36V31H1.648v2.976H.304v-4.16h.688a10.47 10.47 0 001.216-2.224c.33-.81.576-1.653.736-2.528.17-.885.261-1.765.272-2.64h4.512zm-3.264 1.104a13.43 13.43 0 01-.336 2.256 14.809 14.809 0 01-.704 2.208 8.157 8.157 0 01-.976 1.824h3.92v-6.288H4.464zm13.649 3.168c0 .715-.096 1.35-.288 1.904a3.815 3.815 0 01-.8 1.392 3.337 3.337 0 01-1.264.88 4.49 4.49 0 01-1.648.288 4.184 4.184 0 01-1.568-.288 3.544 3.544 0 01-1.248-.88 4.204 4.204 0 01-.832-1.392c-.192-.555-.288-1.19-.288-1.904 0-.95.16-1.75.48-2.4.32-.661.778-1.163 1.376-1.504.597-.352 1.306-.528 2.128-.528.779 0 1.461.176 2.048.528.597.341 1.061.843 1.392 1.504.341.65.512 1.45.512 2.4zm-6.48 0c0 .672.085 1.259.256 1.76.181.49.459.87.832 1.136.373.267.848.4 1.424.4s1.05-.133 1.424-.4c.373-.267.645-.645.816-1.136.181-.501.272-1.088.272-1.76 0-.683-.09-1.264-.272-1.744-.182-.48-.459-.848-.832-1.104-.363-.267-.838-.4-1.424-.4-.875 0-1.51.288-1.904.864-.395.576-.592 1.37-.592 2.384zm15.96-4.272V31h-1.409v-7.376h-4.432V31h-1.408v-8.576h7.248zm10.192 4.272c0 .715-.096 1.35-.288 1.904a3.815 3.815 0 01-.8 1.392 3.337 3.337 0 01-1.264.88 4.49 4.49 0 01-1.648.288 4.184 4.184 0 01-1.568-.288 3.544 3.544 0 01-1.248-.88 4.204 4.204 0 01-.832-1.392c-.192-.555-.288-1.19-.288-1.904 0-.95.16-1.75.48-2.4.32-.661.778-1.163 1.376-1.504.597-.352 1.306-.528 2.128-.528.778 0 1.461.176 2.048.528.597.341 1.061.843 1.392 1.504.341.65.512 1.45.512 2.4zm-6.48 0c0 .672.085 1.259.256 1.76.181.49.458.87.832 1.136.373.267.848.4 1.424.4s1.05-.133 1.424-.4c.373-.267.645-.645.816-1.136.181-.501.272-1.088.272-1.76 0-.683-.09-1.264-.272-1.744-.182-.48-.459-.848-.832-1.104-.363-.267-.838-.4-1.424-.4-.875 0-1.51.288-1.904.864-.395.576-.592 1.37-.592 2.384zM46.545 31H45.12v-7.408h-2.528a41.229 41.229 0 01-.4 3.472c-.16.95-.362 1.723-.608 2.32-.245.597-.538 1.035-.88 1.312a1.846 1.846 0 01-1.2.416c-.138 0-.277-.01-.416-.032a.879.879 0 01-.32-.08v-1.056c.064.021.134.037.208.048.075.01.15.016.224.016.235 0 .448-.096.64-.288.192-.192.363-.485.512-.88.16-.395.304-.89.432-1.488.128-.608.24-1.323.336-2.144.096-.821.182-1.75.256-2.784h5.168V31zm4.13-8.576v3.568h4.655v-3.568h1.408V31H55.33v-3.824h-4.656V31h-1.408v-8.576h1.408zm10.107 5.232c0 .096-.006.235-.016.416 0 .17-.006.357-.016.56l-.032.56c-.01.17-.022.31-.032.416l4.592-7.184h1.728V31h-1.312v-5.728l.032-.816c.01-.277.021-.485.032-.624L61.198 31h-1.744v-8.576h1.328v5.232zm14.873-4.048h-2.8V31h-1.392v-7.392h-2.768v-1.184h6.96v1.184zm4.845-1.344c.736 0 1.365.16 1.888.48.533.32.939.773 1.216 1.36.288.576.432 1.253.432 2.032v.848h-5.872c.022.97.267 1.712.736 2.224.48.501 1.147.752 2 .752.544 0 1.024-.048 1.44-.144a8.685 8.685 0 001.312-.448V30.6c-.437.192-.87.33-1.296.416a7.004 7.004 0 01-1.52.144c-.81 0-1.53-.165-2.16-.496a3.524 3.524 0 01-1.456-1.472c-.341-.661-.512-1.467-.512-2.416 0-.939.155-1.744.464-2.416.32-.672.763-1.19 1.328-1.552.576-.363 1.243-.544 2-.544zm-.016 1.152c-.672 0-1.205.219-1.6.656-.384.427-.613 1.024-.688 1.792h4.368c0-.49-.074-.917-.224-1.28a1.807 1.807 0 00-.688-.848c-.299-.213-.688-.32-1.168-.32zM92.747 31h-1.424v-7.408h-2.528a41.229 41.229 0 01-.4 3.472c-.16.95-.362 1.723-.608 2.32-.245.597-.538 1.035-.88 1.312a1.846 1.846 0 01-1.2.416c-.138 0-.277-.01-.416-.032a.879.879 0 01-.32-.08v-1.056c.064.021.134.037.208.048.075.01.15.016.224.016.235 0 .448-.096.64-.288.192-.192.363-.485.512-.88.16-.395.304-.89.432-1.488.128-.608.24-1.323.336-2.144.096-.821.182-1.75.256-2.784h5.168V31zm6.674-5.056c.747 0 1.366.09 1.856.272.491.181.859.453 1.104.816.256.352.384.8.384 1.344 0 .533-.122.997-.368 1.392-.234.395-.602.699-1.104.912-.501.213-1.146.32-1.936.32H95.47v-8.576h1.408v3.52h2.544zm1.936 2.512c0-.523-.186-.875-.56-1.056-.362-.192-.874-.288-1.536-.288h-2.384v2.752h2.416c.598 0 1.088-.107 1.472-.32.395-.213.592-.576.592-1.088zm5.02-6.032v3.568h4.656v-3.568h1.408V31h-1.408v-3.824h-4.656V31h-1.408v-8.576h1.408zm8.78 8.576v-8.576h1.408v3.52h2.224c.747 0 1.36.09 1.84.272.48.181.837.453 1.072.816.235.352.352.8.352 1.344 0 .533-.117.997-.352 1.392-.224.395-.581.699-1.072.912-.48.213-1.115.32-1.904.32h-3.568zm3.44-1.136c.608 0 1.104-.101 1.488-.304.384-.213.576-.581.576-1.104 0-.523-.176-.875-.528-1.056-.352-.192-.859-.288-1.52-.288h-2.048v2.752h2.032zm4.88 1.136v-8.576h1.408V31h-1.408zm11.077-12.128c-.043.533-.176.981-.4 1.344-.213.363-.533.635-.96.816-.427.181-.981.272-1.664.272-.693 0-1.253-.09-1.68-.272-.416-.181-.72-.448-.912-.8-.192-.363-.309-.816-.352-1.36h1.312c.053.576.203.965.448 1.168.256.192.661.288 1.216.288.491 0 .875-.101 1.152-.304.288-.213.459-.597.512-1.152h1.328zm-5.616 8.784c0 .096-.005.235-.016.416 0 .17-.005.357-.016.56l-.032.56c-.011.17-.021.31-.032.416l4.592-7.184h1.728V31h-1.312v-5.728l.032-.816c.011-.277.021-.485.032-.624L129.354 31h-1.744v-8.576h1.328v5.232zm13.443-1.808c0-1.248.122-2.31.368-3.184.256-.885.645-1.59 1.168-2.112.533-.533 1.216-.89 2.048-1.072a56.26 56.26 0 012.032-.4c.661-.117 1.28-.224 1.856-.32l.24 1.232a28.66 28.66 0 00-.928.16 40.41 40.41 0 00-1.04.176 24.7 24.7 0 00-1.024.176c-.32.053-.603.107-.848.16a2.748 2.748 0 00-.944.384 2.35 2.35 0 00-.72.704 3.9 3.9 0 00-.464 1.104 6.95 6.95 0 00-.208 1.552h.096c.149-.203.352-.41.608-.624.266-.213.581-.395.944-.544.373-.15.794-.224 1.264-.224.746 0 1.365.165 1.856.496.501.32.874.768 1.12 1.344.256.576.384 1.248.384 2.016 0 .95-.166 1.744-.496 2.384-.331.64-.79 1.12-1.376 1.44-.587.31-1.27.464-2.048.464-.587 0-1.12-.112-1.6-.336a3.43 3.43 0 01-1.232-1.024c-.342-.448-.603-1.003-.784-1.664-.182-.661-.272-1.424-.272-2.288zm4 4.144c.469 0 .874-.096 1.216-.288.352-.192.624-.507.816-.944.192-.437.288-1.019.288-1.744 0-.875-.166-1.563-.496-2.064-.32-.512-.854-.768-1.6-.768-.47 0-.896.107-1.28.32a3.728 3.728 0 00-.96.704c-.256.267-.438.49-.544.672 0 .523.037 1.03.112 1.52.074.49.202.933.384 1.328.192.384.453.693.784.928.341.224.768.336 1.28.336zm9.274-7.712c1.045 0 1.819.23 2.32.688.501.459.752 1.19.752 2.192V31h-1.024l-.272-1.216h-.064c-.245.31-.501.57-.768.784a2.53 2.53 0 01-.896.448c-.331.096-.736.144-1.216.144-.512 0-.976-.09-1.392-.272a2.146 2.146 0 01-.96-.832c-.235-.384-.352-.864-.352-1.44 0-.853.336-1.51 1.008-1.968.672-.47 1.707-.725 3.104-.768l1.456-.048v-.512c0-.715-.155-1.21-.464-1.488-.309-.277-.747-.416-1.312-.416-.448 0-.875.07-1.28.208a8.409 8.409 0 00-1.136.448l-.432-1.056a6.156 6.156 0 011.328-.512 5.685 5.685 0 011.6-.224zm.416 4.576c-1.067.043-1.808.213-2.224.512-.405.299-.608.72-.608 1.264 0 .48.144.832.432 1.056.299.224.677.336 1.136.336.725 0 1.328-.197 1.808-.592.48-.405.72-1.024.72-1.856v-.768l-1.264.048zM167.904 31h-1.424v-7.408h-2.528a41.354 41.354 0 01-.4 3.472c-.16.95-.363 1.723-.608 2.32-.246.597-.539 1.035-.88 1.312a1.848 1.848 0 01-1.2.416 2.64 2.64 0 01-.416-.032.877.877 0 01-.32-.08v-1.056c.064.021.133.037.208.048.074.01.149.016.224.016.234 0 .448-.096.64-.288.192-.192.362-.485.512-.88.16-.395.304-.89.432-1.488.128-.608.24-1.323.336-2.144.096-.821.181-1.75.256-2.784h5.168V31zm9.25 0h-1.424v-7.408h-2.528a41.354 41.354 0 01-.4 3.472c-.16.95-.363 1.723-.608 2.32-.246.597-.539 1.035-.88 1.312a1.848 1.848 0 01-1.2.416 2.64 2.64 0 01-.416-.032.877.877 0 01-.32-.08v-1.056c.064.021.133.037.208.048.074.01.149.016.224.016.234 0 .448-.096.64-.288.192-.192.362-.485.512-.88.16-.395.304-.89.432-1.488.128-.608.24-1.323.336-2.144.096-.821.181-1.75.256-2.784h5.168V31zm14.027-8.576v7.392h1.248v4.16h-1.36V31h-5.968v2.976h-1.344v-4.16h.688c.491-.683.896-1.424 1.216-2.224.331-.81.576-1.653.736-2.528.171-.885.261-1.765.272-2.64h4.512zm-3.264 1.104a13.498 13.498 0 01-.336 2.256 14.77 14.77 0 01-.704 2.208 8.157 8.157 0 01-.976 1.824h3.92v-6.288h-1.904zM200.638 31h-1.424v-7.408h-2.528a41.354 41.354 0 01-.4 3.472c-.16.95-.363 1.723-.608 2.32-.245.597-.539 1.035-.88 1.312a1.845 1.845 0 01-1.2.416 2.65 2.65 0 01-.416-.032.877.877 0 01-.32-.08v-1.056c.064.021.133.037.208.048.075.01.149.016.224.016.235 0 .448-.096.64-.288.192-.192.363-.485.512-.88.16-.395.304-.89.432-1.488.128-.608.24-1.323.336-2.144.096-.821.181-1.75.256-2.784h5.168V31zm3.25 0h-1.632l2.448-3.6a3.732 3.732 0 01-.96-.4 2.214 2.214 0 01-.752-.784c-.192-.341-.288-.763-.288-1.264 0-.821.277-1.445.832-1.872.555-.437 1.291-.656 2.208-.656h3.84V31h-1.408v-3.408h-2.08L203.888 31zm.176-6.032c0 .49.181.859.544 1.104.373.235.891.352 1.552.352h2.016v-2.832h-2.288c-.651 0-1.12.128-1.408.384-.277.256-.416.587-.416.992zm11.827-2.544h1.504l1.856 4.88c.107.288.203.565.288.832.096.267.181.528.256.784.075.245.133.485.176.72h.064c.064-.267.165-.613.304-1.04.139-.437.283-.875.432-1.312l1.744-4.864h1.52l-3.696 9.76a6.34 6.34 0 01-.72 1.392 2.743 2.743 0 01-.992.928c-.384.224-.853.336-1.408.336-.256 0-.48-.016-.672-.048a4.406 4.406 0 01-.496-.08v-1.12c.117.021.256.043.416.064.171.021.347.032.528.032.331 0 .613-.064.848-.192a1.64 1.64 0 00.624-.528 3.14 3.14 0 00.432-.8l.448-1.136-3.456-8.608zm10.732 3.12c0 .501.139.875.416 1.12.288.235.699.352 1.232.352.534 0 1.019-.08 1.456-.24.438-.17.886-.395 1.344-.672v-3.68h1.408V31h-1.408v-3.824c-.48.31-.954.555-1.424.736-.458.17-1.013.256-1.664.256-.874 0-1.557-.23-2.048-.688-.48-.459-.72-1.072-.72-1.84v-3.216h1.408v3.12zm11.829-3.264c1.045 0 1.818.23 2.32.688.501.459.752 1.19.752 2.192V31H240.5l-.272-1.216h-.064c-.246.31-.502.57-.768.784a2.53 2.53 0 01-.896.448c-.331.096-.736.144-1.216.144-.512 0-.976-.09-1.392-.272a2.135 2.135 0 01-.96-.832c-.235-.384-.352-.864-.352-1.44 0-.853.336-1.51 1.008-1.968.672-.47 1.706-.725 3.104-.768l1.456-.048v-.512c0-.715-.155-1.21-.464-1.488-.31-.277-.747-.416-1.312-.416-.448 0-.875.07-1.28.208a8.357 8.357 0 00-1.136.448l-.432-1.056a6.156 6.156 0 011.328-.512 5.685 5.685 0 011.6-.224zm.416 4.576c-1.067.043-1.808.213-2.224.512-.406.299-.608.72-.608 1.264 0 .48.144.832.432 1.056.298.224.677.336 1.136.336.725 0 1.328-.197 1.808-.592.48-.405.72-1.024.72-1.856v-.768l-1.264.048zm8.745 4.304c-.758 0-1.435-.155-2.032-.464-.587-.31-1.051-.79-1.392-1.44-.331-.65-.496-1.483-.496-2.496 0-1.056.176-1.915.528-2.576.352-.661.826-1.147 1.424-1.456.608-.31 1.296-.464 2.064-.464.437 0 .858.048 1.264.144.405.085.736.192.992.32l-.432 1.168a8.341 8.341 0 00-.896-.272 3.979 3.979 0 00-.96-.128c-.576 0-1.051.123-1.424.368-.374.245-.651.608-.832 1.088-.182.48-.272 1.077-.272 1.792 0 .683.09 1.264.272 1.744.181.48.453.843.816 1.088.362.245.816.368 1.36.368.469 0 .88-.048 1.232-.144a6.03 6.03 0 00.992-.352v1.248c-.288.15-.608.261-.96.336a5.232 5.232 0 01-1.248.128zm10.167-7.552h-2.8V31h-1.392v-7.392h-2.768v-1.184h6.96v1.184zm3.017 4.048c0 .096-.005.235-.016.416 0 .17-.005.357-.016.56l-.032.56c-.01.17-.021.31-.032.416l4.592-7.184h1.728V31h-1.312v-5.728l.032-.816c.011-.277.022-.485.032-.624L261.213 31h-1.744v-8.576h1.328v5.232zM270.279 31h-1.632l2.448-3.6a3.732 3.732 0 01-.96-.4 2.205 2.205 0 01-.752-.784c-.192-.341-.288-.763-.288-1.264 0-.821.277-1.445.832-1.872.554-.437 1.29-.656 2.208-.656h3.84V31h-1.408v-3.408h-2.08L270.279 31zm.176-6.032c0 .49.181.859.544 1.104.373.235.89.352 1.552.352h2.016v-2.832h-2.288c-.651 0-1.12.128-1.408.384-.278.256-.416.587-.416.992zm20.067-.384c0 .533-.16.95-.48 1.248-.32.299-.731.501-1.232.608v.064c.533.075.997.267 1.392.576.394.299.592.768.592 1.408 0 .363-.07.699-.208 1.008-.128.31-.331.576-.608.8-.278.224-.635.4-1.072.528-.438.117-.966.176-1.584.176h-3.696v-8.576h3.68c.608 0 1.152.07 1.632.208.49.128.874.352 1.152.672.288.31.432.736.432 1.28zm-1.184 3.904c0-.49-.187-.843-.56-1.056-.374-.213-.923-.32-1.648-.32h-2.096v2.752h2.128c.704 0 1.242-.101 1.616-.304.373-.213.56-.57.56-1.072zm-.24-3.728c0-.405-.15-.699-.448-.88-.288-.192-.763-.288-1.424-.288h-2.192v2.352h1.936c.693 0 1.221-.096 1.584-.288.362-.192.544-.49.544-.896zm12.764-2.496c1.056 0 1.904.368 2.544 1.104.651.736.976 1.845.976 3.328 0 .97-.149 1.792-.448 2.464-.288.661-.699 1.163-1.232 1.504-.523.33-1.141.496-1.856.496-.437 0-.827-.059-1.168-.176a3.244 3.244 0 01-.88-.448 3.723 3.723 0 01-.608-.624h-.096c.021.181.043.41.064.688.021.277.032.517.032.72v3.52h-1.408V22.424h1.152l.192 1.168h.064c.171-.245.373-.47.608-.672.245-.203.533-.363.864-.48a3.693 3.693 0 011.2-.176zm-.256 1.184c-.576 0-1.04.112-1.392.336-.352.213-.608.539-.768.976-.16.437-.245.992-.256 1.664v.272c0 .704.075 1.301.224 1.792.149.49.4.864.752 1.12.363.256.853.384 1.472.384.523 0 .949-.144 1.28-.432.341-.288.592-.677.752-1.168.171-.501.256-1.072.256-1.712 0-.981-.192-1.765-.576-2.352-.373-.587-.955-.88-1.744-.88zm13.476 3.248c0 .715-.096 1.35-.288 1.904a3.823 3.823 0 01-.8 1.392 3.344 3.344 0 01-1.264.88 4.491 4.491 0 01-1.648.288 4.181 4.181 0 01-1.568-.288 3.544 3.544 0 01-1.248-.88 4.194 4.194 0 01-.832-1.392c-.192-.555-.288-1.19-.288-1.904 0-.95.16-1.75.48-2.4.32-.661.778-1.163 1.376-1.504.597-.352 1.306-.528 2.128-.528.778 0 1.461.176 2.048.528.597.341 1.061.843 1.392 1.504.341.65.512 1.45.512 2.4zm-6.48 0c0 .672.085 1.259.256 1.76.181.49.458.87.832 1.136.373.267.848.4 1.424.4s1.05-.133 1.424-.4c.373-.267.645-.645.816-1.136.181-.501.272-1.088.272-1.76 0-.683-.091-1.264-.272-1.744-.182-.48-.459-.848-.832-1.104-.363-.267-.838-.4-1.424-.4-.875 0-1.51.288-1.904.864-.395.576-.592 1.37-.592 2.384zm10.967-4.432c.651 0 1.216.09 1.696.272.48.17.853.427 1.12.768.267.33.4.736.4 1.216 0 .523-.144.939-.432 1.248-.288.299-.683.517-1.184.656v.064c.341.096.656.23.944.4.288.17.517.395.688.672.181.277.272.635.272 1.072 0 .47-.133.896-.4 1.28-.256.384-.656.688-1.2.912-.533.224-1.221.336-2.064.336-.405 0-.795-.021-1.168-.064a6.303 6.303 0 01-.992-.192 4.268 4.268 0 01-.768-.304v-1.264c.363.17.789.325 1.28.464a6.1 6.1 0 001.632.208c.427 0 .811-.048 1.152-.144.352-.096.629-.245.832-.448.203-.213.304-.501.304-.864 0-.33-.091-.597-.272-.8-.181-.213-.453-.373-.816-.48-.352-.107-.805-.16-1.36-.16h-1.152V25.96h.928c.736 0 1.323-.096 1.76-.288.448-.203.672-.544.672-1.024 0-.405-.171-.71-.512-.912-.331-.203-.811-.304-1.44-.304-.469 0-.885.048-1.248.144a7.62 7.62 0 00-1.168.4l-.496-1.12a6.65 6.65 0 011.44-.448 8.235 8.235 0 011.552-.144zM325.157 31v-8.576h1.408v3.52h2.224c.747 0 1.36.09 1.84.272.48.181.837.453 1.072.816.235.352.352.8.352 1.344 0 .533-.117.997-.352 1.392-.224.395-.581.699-1.072.912-.48.213-1.115.32-1.904.32h-3.568zm3.44-1.136c.608 0 1.104-.101 1.488-.304.384-.213.576-.581.576-1.104 0-.523-.176-.875-.528-1.056-.352-.192-.859-.288-1.52-.288h-2.048v2.752h2.032zm4.88 1.136v-8.576h1.408V31h-1.408zm9.365-8.576v1.184h-3.824V31h-1.408v-8.576h5.232zm5.77-.16c1.056 0 1.904.368 2.544 1.104.651.736.976 1.845.976 3.328 0 .97-.149 1.792-.448 2.464-.288.661-.699 1.163-1.232 1.504-.523.33-1.141.496-1.856.496-.437 0-.827-.059-1.168-.176a3.244 3.244 0 01-.88-.448 3.723 3.723 0 01-.608-.624h-.096c.021.181.043.41.064.688.021.277.032.517.032.72v3.52h-1.408V22.424h1.152l.192 1.168h.064c.171-.245.373-.47.608-.672.245-.203.533-.363.864-.48a3.693 3.693 0 011.2-.176zm-.256 1.184c-.576 0-1.04.112-1.392.336-.352.213-.608.539-.768.976-.16.437-.245.992-.256 1.664v.272c0 .704.075 1.301.224 1.792.149.49.4.864.752 1.12.363.256.853.384 1.472.384.523 0 .949-.144 1.28-.432.341-.288.592-.677.752-1.168.171-.501.256-1.072.256-1.712 0-.981-.192-1.765-.576-2.352-.373-.587-.955-.88-1.744-.88zm6.02 7.552v-8.576h1.408v3.52h2.224c.746 0 1.36.09 1.84.272.48.181.837.453 1.072.816.234.352.352.8.352 1.344 0 .533-.118.997-.352 1.392-.224.395-.582.699-1.072.912-.48.213-1.115.32-1.904.32h-3.568zm3.44-1.136c.608 0 1.104-.101 1.488-.304.384-.213.576-.581.576-1.104 0-.523-.176-.875-.528-1.056-.352-.192-.859-.288-1.52-.288h-2.048v2.752h2.032zm4.88 1.136v-8.576h1.408V31h-1.408zm15.765-8.576V31h-11.632v-8.576h1.408v7.392h3.696v-7.392h1.408v7.392h3.712v-7.392h1.408zm6.055-.16c.736 0 1.365.16 1.888.48.533.32.938.773 1.216 1.36.288.576.432 1.253.432 2.032v.848h-5.872c.021.97.266 1.712.736 2.224.48.501 1.146.752 2 .752.544 0 1.024-.048 1.44-.144a8.711 8.711 0 001.312-.448V30.6c-.438.192-.87.33-1.296.416a7.01 7.01 0 01-1.52.144c-.811 0-1.531-.165-2.16-.496a3.521 3.521 0 01-1.456-1.472c-.342-.661-.512-1.467-.512-2.416 0-.939.154-1.744.464-2.416.32-.672.762-1.19 1.328-1.552.576-.363 1.242-.544 2-.544zm-.016 1.152c-.672 0-1.206.219-1.6.656-.384.427-.614 1.024-.688 1.792h4.368c0-.49-.075-.917-.224-1.28a1.814 1.814 0 00-.688-.848c-.299-.213-.688-.32-1.168-.32zm17.921-.992V31h-1.408v-7.376h-4.432V31h-1.408v-8.576h7.248zm6.816-.16c1.056 0 1.904.368 2.544 1.104.651.736.976 1.845.976 3.328 0 .97-.149 1.792-.448 2.464-.288.661-.699 1.163-1.232 1.504-.523.33-1.141.496-1.856.496-.437 0-.827-.059-1.168-.176a3.244 3.244 0 01-.88-.448 3.723 3.723 0 01-.608-.624h-.096c.021.181.043.41.064.688.021.277.032.517.032.72v3.52h-1.408V22.424h1.152l.192 1.168h.064c.171-.245.373-.47.608-.672.245-.203.533-.363.864-.48a3.693 3.693 0 011.2-.176zm-.256 1.184c-.576 0-1.04.112-1.392.336-.352.213-.608.539-.768.976-.16.437-.245.992-.256 1.664v.272c0 .704.075 1.301.224 1.792.149.49.4.864.752 1.12.363.256.853.384 1.472.384.523 0 .949-.144 1.28-.432.341-.288.592-.677.752-1.168.171-.501.256-1.072.256-1.712 0-.981-.192-1.765-.576-2.352-.373-.587-.955-.88-1.744-.88zm7.348 4.208a8.4 8.4 0 01-.016.416c0 .17-.006.357-.016.56l-.032.56c-.011.17-.022.31-.032.416l4.592-7.184h1.728V31h-1.312v-5.728l.032-.816c.01-.277.021-.485.032-.624L416.745 31h-1.744v-8.576h1.328v5.232zm11.209-5.392c.651 0 1.216.09 1.696.272.48.17.853.427 1.12.768.267.33.4.736.4 1.216 0 .523-.144.939-.432 1.248-.288.299-.683.517-1.184.656v.064c.341.096.656.23.944.4.288.17.517.395.688.672.181.277.272.635.272 1.072 0 .47-.133.896-.4 1.28-.256.384-.656.688-1.2.912-.533.224-1.221.336-2.064.336-.405 0-.795-.021-1.168-.064a6.303 6.303 0 01-.992-.192 4.268 4.268 0 01-.768-.304v-1.264c.363.17.789.325 1.28.464a6.1 6.1 0 001.632.208c.427 0 .811-.048 1.152-.144.352-.096.629-.245.832-.448.203-.213.304-.501.304-.864 0-.33-.091-.597-.272-.8-.181-.213-.453-.373-.816-.48-.352-.107-.805-.16-1.36-.16h-1.152V25.96h.928c.736 0 1.323-.096 1.76-.288.448-.203.672-.544.672-1.024 0-.405-.171-.71-.512-.912-.331-.203-.811-.304-1.44-.304-.469 0-.885.048-1.248.144a7.62 7.62 0 00-1.168.4l-.496-1.12a6.65 6.65 0 011.44-.448 8.235 8.235 0 011.552-.144zm13.044 4.432c0 .715-.096 1.35-.288 1.904a3.823 3.823 0 01-.8 1.392 3.344 3.344 0 01-1.264.88 4.491 4.491 0 01-1.648.288 4.181 4.181 0 01-1.568-.288 3.544 3.544 0 01-1.248-.88 4.194 4.194 0 01-.832-1.392c-.192-.555-.288-1.19-.288-1.904 0-.95.16-1.75.48-2.4.32-.661.778-1.163 1.376-1.504.597-.352 1.306-.528 2.128-.528.778 0 1.461.176 2.048.528.597.341 1.061.843 1.392 1.504.341.65.512 1.45.512 2.4zm-6.48 0c0 .672.085 1.259.256 1.76.181.49.458.87.832 1.136.373.267.848.4 1.424.4s1.05-.133 1.424-.4c.373-.267.645-.645.816-1.136.181-.501.272-1.088.272-1.76 0-.683-.091-1.264-.272-1.744-.182-.48-.459-.848-.832-1.104-.363-.267-.838-.4-1.424-.4-.875 0-1.51.288-1.904.864-.395.576-.592 1.37-.592 2.384zm15.607-2.112c0 .533-.16.95-.48 1.248-.32.299-.731.501-1.232.608v.064c.533.075.997.267 1.392.576.395.299.592.768.592 1.408 0 .363-.069.699-.208 1.008-.128.31-.331.576-.608.8-.277.224-.635.4-1.072.528-.437.117-.965.176-1.584.176h-3.696v-8.576h3.68c.608 0 1.152.07 1.632.208.491.128.875.352 1.152.672.288.31.432.736.432 1.28zm-1.184 3.904c0-.49-.187-.843-.56-1.056-.373-.213-.923-.32-1.648-.32h-2.096v2.752h2.128c.704 0 1.243-.101 1.616-.304.373-.213.56-.57.56-1.072zm-.24-3.728c0-.405-.149-.699-.448-.88-.288-.192-.763-.288-1.424-.288h-2.192v2.352h1.936c.693 0 1.221-.096 1.584-.288.363-.192.544-.49.544-.896zm3.957 5.365c0-.292.107-.544.32-.758.214-.213.469-.32.766-.32.297 0 .552.107.766.32.213.214.32.469.32.766 0 .302-.107.56-.32.773a1.043 1.043 0 01-.766.313 1.05 1.05 0 01-.773-.313 1.058 1.058 0 01-.313-.781zm.203-1.813v-9.375h1.766v9.375h-1.766z" fill="#fff"/></svg><svg width="21" height="26" fill="none" y="35" xmlns="http://www.w3.org/2000/svg"><path fill-rule="evenodd" clip-rule="evenodd" d="M4.588 11.556V6.7c0-3.096 2.727-5.7 6.1-5.7 3.372 0 6.099 2.533 6.099 5.7v2.04h-1.435V6.7c0-2.322-2.081-4.293-4.665-4.293-2.583 0-4.664 1.9-4.664 4.293v4.856h11.481c1.579 0 2.87 1.266 2.87 2.814v7.741c0 1.548-1.291 2.815-2.87 2.815H3.87c-1.578 0-2.87-1.267-2.87-2.815v-7.74c0-1.549 1.292-2.815 2.87-2.815h.718zM2.435 14.37c0-.774.646-1.407 1.435-1.407h13.634c.79 0 1.435.633 1.435 1.407v7.741c0 .774-.645 1.408-1.435 1.408H3.87c-.789 0-1.435-.634-1.435-1.408v-7.74z" fill="#fff"/></svg><svg width="24" height="16" fill="none" y="61" xmlns="http://www.w3.org/2000/svg"><g clip-path="url(#cclip0_207_15)"><path d="M3.523 4.583H1.828l.813-1.384h2.361V13H3.523V4.583zm5.783 3.32c-.72-.508-1.08-1.2-1.08-2.076 0-.795.274-1.46.82-1.993.55-.533 1.233-.8 2.05-.8.812 0 1.49.267 2.031.8.542.529.813 1.195.813 2 0 .842-.358 1.53-1.073 2.062.393.212.702.521.926.927.229.406.343.864.343 1.371 0 .868-.283 1.579-.85 2.133-.567.555-1.293.832-2.178.832-.905 0-1.652-.28-2.24-.838-.593-.559-.889-1.261-.889-2.108 0-1.1.442-1.87 1.327-2.31zm.31-2.082c0 .419.142.77.426 1.054.288.287.635.431 1.041.431.402 0 .747-.144 1.035-.431.287-.288.431-.633.431-1.035 0-.402-.144-.747-.431-1.035a1.412 1.412 0 00-1.035-.431c-.402 0-.747.143-1.035.431a1.39 1.39 0 00-.431 1.016zm-.183 4.342c0 .452.156.842.47 1.168.317.321.702.482 1.155.482a1.57 1.57 0 001.149-.476c.317-.322.476-.707.476-1.155 0-.453-.16-.838-.476-1.156a1.565 1.565 0 00-1.15-.476 1.58 1.58 0 00-1.148.476 1.551 1.551 0 00-.476 1.137zm6.265-1.67v-1.18h2.793V4.57h1.174v2.742h2.793v1.181h-2.793v2.742h-1.174V8.493h-2.793z" fill="#fff" fill-opacity=".54"/></g><defs><clipPath id="cclip0_207_15"><path fill="#fff" d="M0 0h24v16H0z"/></clipPath></defs></svg><svg width="433" height="42" fill="none" y="77" xmlns="http://www.w3.org/2000/svg"><g filter="url(#dfilter0_d_207_21)"><path d="M18.25 38.9c-5.5 0-9.883-1.833-13.15-5.5C1.967 29.9.4 25.367.4 19.8c0-5.433 1.617-9.967 4.85-13.6C8.583 2.433 12.95.55 18.35.55c1.933 0 3.767.267 5.5.8 2.167.667 3.717 1.617 4.65 2.85.533.7.8 1.417.8 2.15 0 .967-.35 1.833-1.05 2.6-.7.733-1.533 1.1-2.5 1.1-.9 0-1.983-.25-3.25-.75s-2.633-.75-4.1-.75c-3 0-5.3 1.2-6.9 3.6-1.4 2.067-2.1 4.683-2.1 7.85 0 3.1.75 5.633 2.25 7.6 1.633 2.2 3.967 3.3 7 3.3 1.333 0 2.817-.3 4.45-.9 1.633-.6 2.733-.9 3.3-.9.933 0 1.717.383 2.35 1.15.667.733 1 1.567 1 2.5 0 .8-.267 1.567-.8 2.3-1.867 2.567-5.433 3.85-10.7 3.85zm22.12-17.2h3.15v-6.15c0-3.467 1.332-5.2 4-5.2 2.666 0 4 1.733 4 5.2v17.6c0 3.5-1.334 5.25-4 5.25-1.367 0-2.4-.55-3.1-1.65-.6-.933-.9-2.133-.9-3.6v-5.8c-3.367 0-5.5-.05-6.4-.15-2.7-.233-4.7-.867-6-1.9-1.568-1.233-2.35-3.317-2.35-6.25v-3.5c0-3.467 1.332-5.2 4-5.2 2.666 0 4 1.733 4 5.2v3.5c0 1.133.332 1.883 1 2.25.5.267 1.366.4 2.6.4zm23.502 2.55c0 1.767.417 3.267 1.25 4.5.967 1.4 2.3 2.1 4 2.1 1.7 0 3.017-.7 3.95-2.1.8-1.233 1.2-2.733 1.2-4.5s-.4-3.25-1.2-4.45c-.933-1.367-2.25-2.05-3.95-2.05-1.666 0-2.983.683-3.95 2.05-.866 1.233-1.3 2.717-1.3 4.45zm10.7 11.3c-1.666 2.033-3.933 3.05-6.8 3.05-3.633 0-6.633-1.5-9-4.5-2.166-2.767-3.25-6.017-3.25-9.75 0-3.767 1.134-7.05 3.4-9.85 2.4-3 5.45-4.5 9.15-4.5 2.7 0 4.867.967 6.5 2.9.934-1.7 2.217-2.55 3.85-2.55 2.667 0 4 1.95 4 5.85v16.25c0 3.933-1.333 5.9-4 5.9-1.766 0-3.05-.933-3.85-2.8zm11.959-11.2c0-4.233 1.266-7.683 3.8-10.35 2.533-2.7 5.9-4.05 10.099-4.05 2.2 0 4.117.333 5.75 1 2.2.933 3.3 2.333 3.3 4.2 0 .967-.316 1.783-.95 2.45-.633.667-1.433 1-2.4 1-.633 0-1.466-.2-2.5-.6a7.96 7.96 0 00-3.2-.65c-1.833 0-3.25.7-4.25 2.1-.9 1.267-1.35 2.85-1.35 4.75 0 2 .467 3.6 1.4 4.8 1.067 1.333 2.567 2 4.5 2 1.134 0 2.184-.2 3.15-.6.967-.4 1.767-.6 2.4-.6.934 0 1.684.35 2.25 1.05.6.667.9 1.483.9 2.45 0 1.633-1.133 3.017-3.4 4.15-1.633.8-3.666 1.2-6.1 1.2-4.066 0-7.333-1.383-9.8-4.15-2.4-2.667-3.6-6.05-3.6-10.15zm32.091-7.1h-3.45c-3.366 0-5.05-1.15-5.05-3.45 0-2.3 1.684-3.45 5.05-3.45h14.9c3.4 0 5.1 1.15 5.1 3.45 0 2.3-1.7 3.45-5.1 3.45h-3.45v15.2c0 3.933-1.333 5.9-4 5.9-2.666 0-4-1.967-4-5.9v-15.2zm35.67 0h-6c-1.233 0-1.85.617-1.85 1.85v12.8c0 2.033-.566 3.617-1.7 4.75-1.133 1.133-2.716 1.7-4.75 1.7-1.8 0-3.033-.117-3.7-.35-1.233-.467-1.85-1.417-1.85-2.85 0-1.4.45-2.317 1.35-2.75.634-.333 1.717-.5 3.25-.5V19.15c0-3.3.734-5.6 2.2-6.9 1.367-1.267 3.717-1.9 7.05-1.9h10c1.634 0 2.75.567 3.35 1.7.434.8.65 2.067.65 3.8v16.6c0 3.933-1.333 5.9-4 5.9-1.6 0-2.716-.617-3.35-1.85-.433-.9-.65-2.25-.65-4.05v-15.2zm21.621 7.95l9.7-9c0-1.867.2-3.217.6-4.05.6-1.2 1.734-1.8 3.4-1.8 1.667 0 2.8.6 3.4 1.8.4.833.6 2.183.6 4.05v16.25c0 1.867-.2 3.217-.6 4.05-.6 1.233-1.733 1.85-3.4 1.85-1.666 0-2.8-.617-3.4-1.85-.4-.833-.6-2.183-.6-4.05v-7.9l-9.7 7.9c0 1.833-.2 3.183-.6 4.05-.6 1.233-1.716 1.85-3.35 1.85-2.733 0-4.1-1.967-4.1-5.9V16.2c0-1.8.217-3.133.65-4 .634-1.233 1.784-1.85 3.45-1.85 1.634 0 2.75.6 3.35 1.8.4.833.6 2.183.6 4.05v9zm30.274-9.65v6.15h3.25c1.3 0 2.25-.167 2.85-.5.8-.467 1.2-1.317 1.2-2.55 0-2.067-1.45-3.1-4.35-3.1h-2.95zm-3.45 22.75c-3.067 0-4.6-1.75-4.6-5.25v-17.5c0-3.467 1.533-5.2 4.6-5.2h7.25c3.633 0 6.316.483 8.05 1.45 2.333 1.267 3.5 3.55 3.5 6.85 0 2.333-1.117 4.1-3.35 5.3 2.766 1.467 4.15 3.483 4.15 6.05 0 3.333-1.25 5.633-3.75 6.9-1.8.933-4.55 1.4-8.25 1.4h-7.6zm3.45-11.4v6.15h3.25c3.066 0 4.6-1.017 4.6-3.05 0-1.3-.484-2.183-1.45-2.65-.634-.3-1.684-.45-3.15-.45h-3.25zm28.515-5.55c4.667 0 7.55.1 8.65.3 3.634.567 5.867 2.067 6.7 4.5.334 1 .5 2.183.5 3.55 0 3.333-1.183 5.633-3.55 6.9-1.766.933-4.483 1.4-8.15 1.4h-7.6c-3.066 0-4.6-1.75-4.6-5.25v-17.2c0-3.467 1.35-5.2 4.05-5.2 2.667 0 4 1.733 4 5.2v5.8zm0 5.25v6.15h3.25c3.067 0 4.6-1.017 4.6-3.05 0-1.3-.483-2.183-1.45-2.65-.633-.3-1.683-.45-3.15-.45h-3.25zm27.55-10.4v16.55c0 1.7-.233 2.95-.7 3.75-.6 1-1.7 1.5-3.3 1.5-1.6 0-2.7-.5-3.3-1.5-.466-.8-.7-2.05-.7-3.75V16.2c0-3.9 1.334-5.85 4-5.85 2.667 0 4 1.95 4 5.85zm12.364 10.4c.166 1.567.816 2.767 1.95 3.6 1.133.833 2.516 1.25 4.15 1.25 1.366 0 3.016-.433 4.95-1.3 1.933-.9 3.133-1.35 3.6-1.35 2.133 0 3.2 1.05 3.2 3.15 0 .8-.3 1.6-.9 2.4-1.067 1.467-2.767 2.583-5.1 3.35a19.02 19.02 0 01-6.15 1c-4 0-7.334-1.367-10-4.1-2.667-2.767-4-6.167-4-10.2 0-4 1.266-7.417 3.8-10.25 2.566-2.833 5.833-4.25 9.8-4.25 1.966 0 3.75.367 5.35 1.1 2.3 1.067 4.183 2.65 5.65 4.75 1.466 2.1 2.2 4.383 2.2 6.85 0 1.333-.484 2.35-1.45 3.05-.834.633-1.934.95-3.3.95h-13.75zm-.1-5.3h10.65c-.1-1.4-.65-2.55-1.65-3.45-.967-.9-2.15-1.35-3.55-1.35-1.434 0-2.634.45-3.6 1.35-.967.867-1.584 2.017-1.85 3.45zm49.496.4h3.15v-6.15c0-3.467 1.333-5.2 4-5.2 2.666 0 4 1.733 4 5.2v17.6c0 3.5-1.334 5.25-4 5.25-1.367 0-2.4-.55-3.1-1.65-.6-.933-.9-2.133-.9-3.6v-5.8c-3.367 0-5.5-.05-6.4-.15-2.7-.233-4.7-.867-6-1.9-1.567-1.233-2.35-3.317-2.35-6.25v-3.5c0-3.467 1.333-5.2 4-5.2 2.666 0 4 1.733 4 5.2v3.5c0 1.133.333 1.883 1 2.25.5.267 1.366.4 2.6.4zm23.503 2.55c0 1.767.417 3.267 1.25 4.5.967 1.4 2.3 2.1 4 2.1 1.7 0 3.017-.7 3.95-2.1.8-1.233 1.2-2.733 1.2-4.5s-.4-3.25-1.2-4.45c-.933-1.367-2.25-2.05-3.95-2.05-1.667 0-2.983.683-3.95 2.05-.867 1.233-1.3 2.717-1.3 4.45zm10.7 11.3c-1.667 2.033-3.933 3.05-6.8 3.05-3.633 0-6.633-1.5-9-4.5-2.167-2.767-3.25-6.017-3.25-9.75 0-3.767 1.133-7.05 3.4-9.85 2.4-3 5.45-4.5 9.15-4.5 2.7 0 4.867.967 6.5 2.9.933-1.7 2.217-2.55 3.85-2.55 2.667 0 4 1.95 4 5.85v16.25c0 3.933-1.333 5.9-4 5.9-1.767 0-3.05-.933-3.85-2.8zm11.958-11.2c0-4.233 1.267-7.683 3.8-10.35 2.533-2.7 5.9-4.05 10.1-4.05 2.2 0 4.117.333 5.75 1 2.2.933 3.3 2.333 3.3 4.2 0 .967-.317 1.783-.95 2.45-.633.667-1.433 1-2.4 1-.633 0-1.467-.2-2.5-.6-1-.433-2.067-.65-3.2-.65-1.833 0-3.25.7-4.25 2.1-.9 1.267-1.35 2.85-1.35 4.75 0 2 .467 3.6 1.4 4.8 1.067 1.333 2.567 2 4.5 2 1.133 0 2.183-.2 3.15-.6.967-.4 1.767-.6 2.4-.6.933 0 1.683.35 2.25 1.05.6.667.9 1.483.9 2.45 0 1.633-1.133 3.017-3.4 4.15-1.633.8-3.667 1.2-6.1 1.2-4.067 0-7.333-1.383-9.8-4.15-2.4-2.667-3.6-6.05-3.6-10.15zm34.842-3c4.667 0 7.55.1 8.65.3 3.633.567 5.867 2.067 6.7 4.5.333 1 .5 2.183.5 3.55 0 3.333-1.183 5.633-3.55 6.9-1.767.933-4.483 1.4-8.15 1.4h-7.6c-3.067 0-4.6-1.75-4.6-5.25v-17.2c0-3.467 1.35-5.2 4.05-5.2 2.667 0 4 1.733 4 5.2v5.8zm0 5.25v6.15h3.25c3.067 0 4.6-1.017 4.6-3.05 0-1.3-.483-2.183-1.45-2.65-.633-.3-1.683-.45-3.15-.45h-3.25zm27.55-10.4v16.55c0 1.7-.233 2.95-.7 3.75-.6 1-1.7 1.5-3.3 1.5-1.6 0-2.7-.5-3.3-1.5-.467-.8-.7-2.05-.7-3.75V16.2c0-3.9 1.333-5.85 4-5.85s4 1.95 4 5.85z" fill="#fff"/></g><defs><filter id="dfilter0_d_207_21" x=".4" y=".55" width="432.165" height="41.35" filterUnits="userSpaceOnUse" color-interpolation-filters="sRGB"><feFlood flood-opacity="0" result="BackgroundImageFix"/><feColorMatrix in="SourceAlpha" values="0 0 0 0 0 0 0 0 0 0 0 0 0 0 0 0 0 0 127 0" result="hardAlpha"/><feOffset dy="3"/><feColorMatrix values="0 0 0 0 0.0029 0 0 0 0 0.3625 0 0 0 0 0.58 0 0 0 1 0"/><feBlend in2="BackgroundImageFix" result="effect1_dropShadow_207_21"/><feBlend in="SourceGraphic" in2="effect1_dropShadow_207_21" result="shape"/></filter></defs></svg></svg>