<svg width="167" height="13" fill="none" xmlns="http://www.w3.org/2000/svg"><path d="M6.48 6.15v.045C7.65 6.665 8.235 7.5 8.235 8.7c0 2.29-1.435 3.435-4.305 3.435-.91 0-1.68-.105-2.31-.315-.93-.31-1.395-.825-1.395-1.545 0-.63.345-.945 1.035-.945.29 0 .58.06.87.18.43.18.7.285.81.315.23.06.575.09 1.035.09 1.11 0 1.665-.43 1.665-1.29 0-.37-.13-.685-.39-.945-.2-.21-.49-.335-.87-.375-.09-.01-.41-.015-.96-.015-1.04 0-1.56-.345-1.56-1.035 0-.31.145-.565.435-.765.22-.15.51-.24.87-.27.07-.01.38-.015.93-.015.38 0 .695-.075.945-.225.31-.19.465-.46.465-.81 0-.79-.5-1.185-1.5-1.185-.31 0-.715.07-1.215.21-.49.14-.86.21-1.11.21-.69 0-1.035-.315-1.035-.945 0-.21.095-.415.285-.615.59-.62 1.635-.93 3.135-.93 2.6 0 3.9 1.005 3.9 3.015 0 1.05-.495 1.79-1.485 2.22z" fill="white" class="svg-elem-1"/><path d="M13.576.9c.89 0 1.505.48 1.845 1.44l2.76 7.875c.12.34.18.6.18.78 0 .34-.12.615-.36.825-.24.21-.53.315-.87.315-.63 0-1.07-.395-1.32-1.185l-.405-1.29h-3.87l-.45 1.38c-.24.73-.64 1.095-1.2 1.095-.35 0-.635-.105-.855-.315-.22-.22-.33-.505-.33-.855 0-.26.04-.5.12-.72l2.85-7.725c.4-1.08 1.035-1.62 1.905-1.62zm-.075 2.715l-1.245 3.84h2.475l-1.2-3.84h-.03z" fill="white" class="svg-elem-2"/><path d="M21.79 6.225h1.08c1.14 0 1.71-.485 1.71-1.455 0-.95-.57-1.425-1.71-1.425h-1.08v2.88zm-1.245 5.91c-.83 0-1.245-.59-1.245-1.77v-7.56c0-.65.125-1.105.375-1.365s.7-.39 1.35-.39h2.25c1.21 0 2.17.315 2.88.945.75.66 1.125 1.585 1.125 2.775 0 1.18-.34 2.095-1.02 2.745-.68.65-1.61.975-2.79.975h-1.68v1.875c0 1.18-.415 1.77-1.245 1.77z" fill="white" class="svg-elem-3"/><path d="M33.161 1.05c1.18 0 1.77.39 1.77 1.17 0 .77-.59 1.155-1.77 1.155h-2.04v1.95h1.755c1.18 0 1.77.385 1.77 1.155s-.59 1.155-1.77 1.155h-1.755V9.69h2.115c1.18 0 1.77.385 1.77 1.155S34.416 12 33.236 12h-2.91c-.63 0-1.07-.105-1.32-.315-.25-.22-.375-.64-.375-1.26v-7.62c0-.65.125-1.105.375-1.365s.7-.39 1.35-.39h2.805z" fill="white" class="svg-elem-4"/><path d="M36.395 10.365v-7.56c0-.65.125-1.105.375-1.365s.7-.39 1.35-.39h2.805c1.18 0 1.77.39 1.77 1.17 0 .77-.59 1.155-1.77 1.155h-2.04v6.99c0 1.18-.415 1.77-1.245 1.77-.83 0-1.245-.59-1.245-1.77z" fill="white" class="svg-elem-5"/><path d="M50.931 5.325l-4.515 5.97c-.42.56-.9.84-1.44.84-.75 0-1.125-.495-1.125-1.485V2.685c0-1.18.415-1.77 1.245-1.77.83 0 1.245.59 1.245 1.77v5.13l4.605-6.09c.41-.54.85-.81 1.32-.81.77 0 1.155.56 1.155 1.68v7.77c0 1.18-.415 1.77-1.245 1.77-.83 0-1.245-.59-1.245-1.77v-5.04z" fill="white" class="svg-elem-6"/><path d="M60.165 12.27c-1.65 0-2.965-.55-3.945-1.65-.94-1.05-1.41-2.41-1.41-4.08 0-1.63.485-2.99 1.455-4.08 1-1.13 2.31-1.695 3.93-1.695.58 0 1.13.08 1.65.24.65.2 1.115.485 1.395.855.16.21.24.425.24.645 0 .29-.105.55-.315.78-.21.22-.46.33-.75.33-.27 0-.595-.075-.975-.225a3.32 3.32 0 00-1.23-.225c-.9 0-1.59.36-2.07 1.08-.42.62-.63 1.405-.63 2.355 0 .93.225 1.69.675 2.28.49.66 1.19.99 2.1.99.4 0 .845-.09 1.335-.27.49-.18.82-.27.99-.27a.88.88 0 01.705.345c.2.22.3.47.3.75 0 .24-.08.47-.24.69-.56.77-1.63 1.155-3.21 1.155z" fill="white" class="svg-elem-7"/><path d="M66.43 3.375c-.9 0-1.46-.025-1.68-.075-.67-.14-1.004-.5-1.004-1.08 0-.78.59-1.17 1.77-1.17h4.335c1.18 0 1.77.39 1.77 1.17 0 .58-.335.94-1.005 1.08-.22.05-.78.075-1.68.075v6.99c0 1.18-.415 1.77-1.245 1.77-.84 0-1.26-.59-1.26-1.77v-6.99z" fill="white" class="svg-elem-8"/><path d="M74.906 6.225h1.08c1.14 0 1.71-.485 1.71-1.455 0-.95-.57-1.425-1.71-1.425h-1.08v2.88zm-1.246 5.91c-.83 0-1.245-.59-1.245-1.77v-7.56c0-.65.125-1.105.375-1.365s.7-.39 1.35-.39h2.25c1.21 0 2.17.315 2.88.945.75.66 1.126 1.585 1.126 2.775 0 1.18-.34 2.095-1.02 2.745-.68.65-1.61.975-2.79.975h-1.68v1.875c0 1.18-.416 1.77-1.246 1.77z" fill="white" class="svg-elem-9"/><path d="M88.827 5.325l-4.515 5.97c-.42.56-.9.84-1.44.84-.75 0-1.125-.495-1.125-1.485V2.685c0-1.18.415-1.77 1.245-1.77.83 0 1.245.59 1.245 1.77v5.13l4.605-6.09c.41-.54.85-.81 1.32-.81.77 0 1.155.56 1.155 1.68v7.77c0 1.18-.415 1.77-1.245 1.77-.83 0-1.245-.59-1.245-1.77v-5.04z" fill="white" class="svg-elem-10"/><path d="M95.75 6.225h1.08c1.14 0 1.71-.485 1.71-1.455 0-.95-.57-1.425-1.71-1.425h-1.08v2.88zm-1.245 5.91c-.83 0-1.245-.59-1.245-1.77v-7.56c0-.65.125-1.105.375-1.365s.7-.39 1.35-.39h2.25c1.21 0 2.17.315 2.88.945.75.66 1.125 1.585 1.125 2.775 0 1.18-.34 2.095-1.02 2.745-.68.65-1.61.975-2.79.975h-1.68v1.875c0 1.18-.415 1.77-1.245 1.77z" fill="white" class="svg-elem-11"/><path d="M102.066 6.54c0-1.64.46-2.975 1.38-4.005.95-1.08 2.235-1.62 3.855-1.62 1.63 0 2.92.535 3.87 1.605.92 1.03 1.38 2.37 1.38 4.02 0 1.64-.46 2.975-1.38 4.005-.96 1.06-2.25 1.59-3.87 1.59s-2.905-.535-3.855-1.605c-.92-1.02-1.38-2.35-1.38-3.99zm2.64.03c0 .9.205 1.645.615 2.235.46.69 1.12 1.035 1.98 1.035.86 0 1.525-.34 1.995-1.02.41-.6.615-1.35.615-2.25 0-.93-.195-1.695-.585-2.295-.47-.71-1.145-1.065-2.025-1.065-.88 0-1.55.355-2.01 1.065-.39.6-.585 1.365-.585 2.295z" fill="white" class="svg-elem-12"/><path d="M115.668 12c-.63 0-1.07-.105-1.32-.315-.25-.22-.375-.64-.375-1.26v-7.62c0-.65.125-1.105.375-1.365s.7-.39 1.35-.39h2.04c.99 0 1.83.205 2.52.615.84.49 1.26 1.195 1.26 2.115 0 1.19-.43 1.995-1.29 2.415v.045c.64.2 1.1.495 1.38.885.28.38.42.905.42 1.575 0 1.11-.385 1.955-1.155 2.535-.68.51-1.595.765-2.745.765h-2.46zm.795-4.725v2.58h1.245c.53 0 .925-.07 1.185-.21.34-.19.51-.53.51-1.02 0-.57-.165-.95-.495-1.14-.24-.14-.655-.21-1.245-.21h-1.2zm0-4.095v2.145h1.08c.49 0 .835-.06 1.035-.18.28-.16.42-.46.42-.9 0-.71-.485-1.065-1.455-1.065h-1.08z" fill="white" class="svg-elem-13"/><path d="M127.351.9c.89 0 1.505.48 1.845 1.44l2.76 7.875c.12.34.18.6.18.78 0 .34-.12.615-.36.825-.24.21-.53.315-.87.315-.63 0-1.07-.395-1.32-1.185l-.405-1.29h-3.87l-.45 1.38c-.24.73-.64 1.095-1.2 1.095-.35 0-.635-.105-.855-.315-.22-.22-.33-.505-.33-.855 0-.26.04-.5.12-.72l2.85-7.725c.4-1.08 1.035-1.62 1.905-1.62zm-.075 2.715l-1.245 3.84h2.475l-1.2-3.84h-.03z" fill="white" class="svg-elem-14"/><path d="M133.77 3.375c-.9 0-1.46-.025-1.68-.075-.67-.14-1.005-.5-1.005-1.08 0-.78.59-1.17 1.77-1.17h4.335c1.18 0 1.77.39 1.77 1.17 0 .58-.335.94-1.005 1.08-.22.05-.78.075-1.68.075v6.99c0 1.18-.415 1.77-1.245 1.77-.84 0-1.26-.59-1.26-1.77v-6.99z" fill="white" class="svg-elem-15"/><path d="M142.244 6.825v2.88h1.08c1.14 0 1.71-.475 1.71-1.425 0-.97-.57-1.455-1.71-1.455h-1.08zm0-2.265h1.68c1.19 0 2.12.325 2.79.975.68.64 1.02 1.555 1.02 2.745 0 1.18-.375 2.105-1.125 2.775-.72.63-1.68.945-2.88.945h-2.25c-.65 0-1.1-.13-1.35-.39s-.375-.715-.375-1.365v-7.56c0-1.18.415-1.77 1.245-1.77.83 0 1.245.59 1.245 1.77V4.56z" fill="white" class="svg-elem-16"/><path d="M153.886 12.27c-1.65 0-2.965-.55-3.945-1.65-.94-1.05-1.41-2.41-1.41-4.08 0-1.63.485-2.99 1.455-4.08 1-1.13 2.31-1.695 3.93-1.695.58 0 1.13.08 1.65.24.65.2 1.115.485 1.395.855.16.21.24.425.24.645 0 .29-.105.55-.315.78-.21.22-.46.33-.75.33-.27 0-.595-.075-.975-.225a3.32 3.32 0 00-1.23-.225c-.9 0-1.59.36-2.07 1.08-.42.62-.63 1.405-.63 2.355 0 .93.225 1.69.675 2.28.49.66 1.19.99 2.1.99.4 0 .845-.09 1.335-.27.49-.18.82-.27.99-.27a.88.88 0 01.705.345c.2.22.3.47.3.75 0 .24-.08.47-.24.69-.56.77-1.63 1.155-3.21 1.155z" fill="white" class="svg-elem-17"/><path d="M164.007 6.015v-2.67h-1.185c-1.04 0-1.56.435-1.56 1.305 0 .91.53 1.365 1.59 1.365h1.155zm2.49-3.21v7.56c0 1.18-.415 1.77-1.245 1.77-.83 0-1.245-.59-1.245-1.77v-2.7l-2.91 3.66c-.43.54-.87.81-1.32.81-.33 0-.615-.1-.855-.3a1.03 1.03 0 01-.345-.795c0-.4.245-.875.735-1.425l1.965-2.19c-.8-.13-1.435-.455-1.905-.975s-.705-1.18-.705-1.98c0-1.01.355-1.83 1.065-2.46.72-.64 1.755-.96 3.105-.96h1.935c.66 0 1.11.13 1.35.39.25.25.375.705.375 1.365z" fill="white" class="svg-elem-18"/></svg>